<?xml version="1.0" encoding="UTF-8" standalone="no"?>
<!-- Created with Inkscape (http://www.inkscape.org/) -->

<svg
   width="2000"
   height="597.58398"
   viewBox="0 0 529.16665 158.11077"
   version="1.1"
   id="svg5"
   inkscape:version="1.1.2 (b8e25be833, 2022-02-05)"
   sodipodi:docname="Starcourt_Mall_Logo.svg"
   xmlns:inkscape="http://www.inkscape.org/namespaces/inkscape"
   xmlns:sodipodi="http://sodipodi.sourceforge.net/DTD/sodipodi-0.dtd"
   xmlns="http://www.w3.org/2000/svg"
   xmlns:svg="http://www.w3.org/2000/svg">
  <sodipodi:namedview
     id="namedview7"
     pagecolor="#ffffff"
     bordercolor="#666666"
     borderopacity="1.0"
     inkscape:pageshadow="2"
     inkscape:pageopacity="0.0"
     inkscape:pagecheckerboard="0"
     inkscape:document-units="mm"
     showgrid="false"
     showguides="true"
     inkscape:guide-bbox="true"
     inkscape:zoom="0.35355339"
     inkscape:cx="943.28045"
     inkscape:cy="267.28636"
     inkscape:window-width="1920"
     inkscape:window-height="1001"
     inkscape:window-x="-9"
     inkscape:window-y="-9"
     inkscape:window-maximized="1"
     inkscape:current-layer="svg5"
     inkscape:snap-intersection-paths="false"
     inkscape:snap-smooth-nodes="false"
     inkscape:snap-bbox="false"
     inkscape:snap-bbox-edge-midpoints="false"
     inkscape:bbox-nodes="false"
     inkscape:snap-bbox-midpoints="false"
     inkscape:snap-global="true"
     inkscape:object-paths="false"
     units="px"
     height="2000px"
     inkscape:snap-nodes="false"
     inkscape:object-nodes="false"
     inkscape:snap-others="false" />
  <defs
     id="defs2" />
  <path
     style="display:inline;fill:none;fill-opacity:1;stroke:#00ffff;stroke-width:1.67111;stroke-linecap:round;stroke-linejoin:round;stroke-miterlimit:4;stroke-dasharray:none;stroke-opacity:1"
     d="m 149.9397,157.01074 c -2.92532,-3.67775 -1.19149,-6.18394 2.04666,-8.88639 4.49815,-3.7539 9.34131,-7.03909 14.31023,-10.1244 17.09244,-10.61358 35.52511,-18.82014 53.67102,-27.15091 5.42537,-2.49083 16.6388,-9.6821 22.89531,-8.59639 4.06978,0.7059 -6.04314,8.19259 -7.04959,9.0503 -8.99423,7.66269 -20.1256,15.78081 -28.60461,23.81513 -1.72719,1.63669 -8.22647,8.96866 -2.56599,10.01909 5.73975,1.06473 13.1305,-3.29642 17.88064,-5.94624 7.90497,-4.40971 15.51144,-9.42258 23.00186,-14.38486 5.83482,-3.86533 12.18589,-8.29905 17.89035,-12.0954 4.35962,-2.90078 15.09511,-10.23378 18.11397,-9.40289 0.25607,1.7369 -4.99372,6.84661 -7.89093,9.74382 -5.33386,5.33439 -10.76589,10.85433 -14.71914,17.3792 -1.58559,2.61709 -3.29694,5.56084 -2.07273,8.68753 1.80285,4.60653 6.88983,5.21224 11.16921,5.10592 11.14772,-0.27653 18.54307,-9.65822 28.62452,-11.98754 4.22111,-0.9753 7.70769,3.26779 12.26767,2.6999 2.87319,-0.35781 5.97384,-4.09587 8.66965,-3.5704 3.37465,0.65837 5.21635,4.79869 9.22069,5.1427 4.69287,0.40382 8.32413,-3.46663 12.7788,-3.44465 3.67827,0.0193 5.45094,4.35654 9.20076,4.92444 5.23266,0.79126 8.96408,-3.52286 13.80113,-3.84079 2.57418,-0.16963 3.77743,2.15349 6.13379,2.68609 3.40021,0.76879 7.54875,-1.88204 10.73423,-2.80519 3.91542,-1.13425 8.32874,-1.16748 11.75651,-0.53109"
     id="path40537"
     sodipodi:nodetypes="cccsccscsccccsccsscccccccc"
     inkscape:label="path7066" />
  <path
     style="display:inline;fill:none;fill-opacity:1;stroke:#ff00bf;stroke-width:1.67111;stroke-linecap:round;stroke-linejoin:round;stroke-miterlimit:4;stroke-dasharray:none;stroke-opacity:1"
     d="m 141.76126,155.47728 c -2.31449,-3.62307 -0.1564,-5.95032 2.55782,-8.68908 4.3274,-4.3673 9.71394,-8.37115 14.82138,-11.75499 9.33108,-6.18239 19.10075,-11.48048 29.13569,-16.48517 12.88258,-6.42468 26.64689,-12.33412 40.38105,-16.91201 4.64705,-1.4704 21.49842,-7.660036 24.17344,-4.039628 1.79902,2.434838 -6.91898,10.554288 -8.83887,12.342808 -6.65827,6.2013 -14.34396,11.92417 -21.4684,17.48447 -4.88048,3.8086 -11.50195,8.5153 -14.82341,13.23016 6.52587,0.96507 15.08102,-6.4768 20.44609,-9.81003 13.84867,-8.60374 27.19639,-19.08696 41.40336,-27.06398 4.68112,-2.62837 13.04307,-8.050413 18.64734,-7.4043 4.82211,0.568214 -1.98786,9.2843 -3.45895,11.05341 -6.10367,7.34116 -13.58592,13.7592 -19.33078,21.4684 -1.61627,2.16832 -4.97454,6.35106 -2.74591,9.05813 2.43872,2.96316 7.84211,1.10767 10.97751,0.27807 6.17576,-1.63313 12.20531,-4.32282 17.89033,-7.16533 4.22469,-2.1121 6.50035,-4.01818 10.7342,-5.23778 -0.12459,8.55106 15.86161,2.86144 18.03299,-3.51929 0.83164,-2.44534 -1.90099,-2.50081 -3.91291,-2.51459 -5.39572,-0.0368 -12.14369,3.80186 -15.73861,6.56465 m 73.17991,-23.53262 c -6.95679,4.99701 -13.86806,10.36411 -19.93496,16.3589 -2.0855,2.06048 -3.71352,4.31822 -6.1338,5.69937 -3.05008,1.74045 -7.09994,3.07611 -10.73422,4.34531 -3.61129,1.26101 -8.42023,2.52763 -12.26717,1.4169 -3.21769,-0.92875 -3.81816,-3.29821 -3.81816,-5.88886 0,-1.34176 1.20072,-2.77943 1.20072,-2.77943 m 74.68947,-18.64105 c -2.89314,1.95208 -5.29403,3.44107 -8.17847,5.56337 -5.14526,3.78662 -11.37314,8.53728 -15.55132,13.34926 -1.50584,1.73384 -6.90872,6.11339 -4.4976,8.88437 1.49255,1.71542 5.20046,-0.62976 6.75896,-1.29374 4.60088,-1.95926 8.88126,-3.48503 13.80112,-3.5009 2.35743,-0.008 2.97899,0.004 5.11153,0.51064 m -47.02605,-1.02229 c -0.7943,2.78578 -2.91355,7.43062 2.55577,7.63713 5.76734,0.21775 15.43579,-5.02418 20.24037,-7.98821"
     id="path40537-6"
     sodipodi:nodetypes="ccccccccccsccccccccccccscccccccsccccsc"
     inkscape:label="path7064" />
  <path
     id="path8584"
     style="display:inline;fill:#00ffff;fill-opacity:1;stroke:none;stroke-width:0.511955;stroke-linecap:round;stroke-opacity:1"
     d="M 488.21261,0.26458333 V 25.98394 h -8.82141 c -7.89333,0 -12.46728,3.562095 -12.46731,3.562095 V 25.98394 h -17.13061 v 56.51131 h 17.13157 V 57.363917 c 2e-5,-7.893402 6.35501,-14.248377 14.24837,-14.248377 h 7.04035 v 39.37971 h 17.13159 V 43.11554 h 23.55695 V 25.98394 H 505.34516 V 0.26458333 Z M 490.4409,2.494885 h 1.96975 V 25.98394 h -1.96975 z m 5.35312,0 h 1.96876 V 25.98394 h -1.96876 z m 5.35115,0 h 1.96974 V 25.98394 h -1.96974 z m 25.52567,25.717364 v 1.965739 l -47.27863,0.0021 c -7.89336,0 -12.46731,3.562094 -12.46731,3.562094 v -1.965744 c 0,0 4.57395,-3.561816 12.46731,-3.562092 z m -74.64924,0.0021 h 1.96974 v 52.050635 h -1.96974 z m 5.35311,0 h 1.96876 v 52.050635 h -1.96876 z m 5.35114,0 h 1.96972 v 52.050635 h -1.96972 z m 16.66636,5.351128 h 47.27863 v 1.967738 l -47.27863,-0.0021 c -7.89336,0 -12.46731,5.355119 -12.46731,5.355119 v -2.370067 c 0,0 4.57395,-4.950852 12.46731,-4.950795 z m 0,5.355126 h 47.27863 v 1.967735 l -47.27863,-0.0021 C 471.49885,40.88594 466.9249,49.28232 466.9249,49.28232 v -2.948114 c 0,0 4.57395,-7.413729 12.46731,-7.413705 z m 11.04869,4.195043 h 1.96975 v 37.149338 h -1.96975 z m 5.35312,0 h 1.96876 v 37.149338 h -1.96876 z m 5.35115,0 h 1.96974 v 37.149338 h -1.96974 z"
     inkscape:label="path7062" />
  <path
     id="rect7052"
     style="display:inline;fill:#00ffff;fill-opacity:1;stroke:none;stroke-width:1.30892;stroke-linecap:round;stroke-opacity:1"
     d="m 386.32152,25.98394 v 26.640832 c 0,16.548205 13.32226,29.870478 29.8705,29.870478 16.54819,0 29.87046,-13.322273 29.87046,-29.870478 V 25.98394 h -17.13159 v 26.640832 c 0,7.057309 -5.6816,12.73888 -12.73887,12.73888 -7.05732,0 -12.7389,-5.681571 -12.7389,-12.73888 V 25.98394 Z m 2.22832,2.230302 h 1.96973 v 24.409532 c 0,14.222264 11.4502,25.67244 25.67245,25.67244 14.22226,0 25.67144,-11.450176 25.67144,-25.67244 V 28.214242 h 1.96973 v 24.41053 c 0,15.313484 -12.32768,27.641177 -27.64117,27.641177 -15.31352,0 -27.64218,-12.327693 -27.64218,-27.641177 z m 5.35312,0 h 1.96873 v 24.41053 c 0,11.257451 9.06285,20.320313 20.32033,20.320313 11.25744,0 20.3203,-9.062862 20.3203,-20.320313 v -24.41053 h 1.96872 v 24.41053 c 0,12.348133 -9.94089,22.289047 -22.28902,22.289047 -12.34816,0 -22.28906,-9.940914 -22.28906,-22.289047 z m 5.35111,0 h 1.96975 v 24.409532 c 0,8.292096 6.67609,14.968183 14.9682,14.968183 8.29207,0 14.96718,-6.676087 14.96718,-14.968183 V 28.214242 h 1.96974 v 25.68841 c 0,8.675071 -6.98397,15.659042 -15.65903,15.659042 h -2.55679 c -8.67508,0 -15.65905,-6.983971 -15.65905,-15.659042 z"
     inkscape:label="path7060" />
  <path
     id="path4027"
     style="display:inline;fill:#00ffff;fill-opacity:1;stroke:none;stroke-width:1.10863;stroke-linecap:round;stroke-opacity:1"
     d="M 356.20046,25.98394 A 28.255745,28.255648 0 0 0 327.9443,54.239097 28.255745,28.255648 0 0 0 356.20046,82.49525 28.255745,28.255648 0 0 0 384.45663,54.239097 28.255745,28.255648 0 0 0 356.20046,25.98394 Z m 0,2.228309 a 26.026709,26.026622 0 0 1 26.02585,26.026848 26.026709,26.026622 0 0 1 -26.02585,26.026852 26.026709,26.026622 0 0 1 -26.02682,-26.026852 26.026709,26.026622 0 0 1 26.02682,-26.026848 z m 0,1.967737 a 24.059629,24.059549 0 0 0 -24.06012,24.060109 24.059629,24.059549 0 0 0 24.06012,24.059112 24.059629,24.059549 0 0 0 24.05911,-24.059112 24.059629,24.059549 0 0 0 -24.05911,-24.060109 z m 0,3.385386 a 20.673665,20.673596 0 0 1 20.67372,20.673725 20.673665,20.673596 0 0 1 -20.67372,20.673726 20.673665,20.673596 0 0 1 -20.67371,-20.673726 20.673665,20.673596 0 0 1 20.67371,-20.673725 z m 0,1.967736 a 18.705964,18.7059 0 0 0 -18.70599,18.705989 18.705964,18.7059 0 0 0 18.70599,18.705988 18.705964,18.7059 0 0 0 18.70601,-18.705988 18.705964,18.7059 0 0 0 -18.70601,-18.705989 z m 0,3.387387 a 15.319067,15.319067 0 0 1 15.31862,15.3196 15.319067,15.319067 0 0 1 -15.31862,15.318604 15.319067,15.319067 0 0 1 -15.3186,-15.318604 15.319067,15.319067 0 0 1 15.3186,-15.3196 z m 0,1.967738 A 13.351859,13.351859 0 0 0 342.8486,54.240095 13.351859,13.351859 0 0 0 356.20046,67.591957 13.351859,13.351859 0 0 0 369.55231,54.240095 13.351859,13.351859 0 0 0 356.20046,40.888233 Z m 0,2.227307 A 11.124098,11.12406 0 0 1 367.32502,54.239097 11.124098,11.12406 0 0 1 356.20046,65.363652 11.124098,11.12406 0 0 1 345.0759,54.239097 11.124098,11.12406 0 0 1 356.20046,43.11554 Z"
     inkscape:label="path7058" />
  <path
     id="rect3120"
     style="display:inline;fill:#00ffff;fill-opacity:1;stroke:none;stroke-width:0.511955;stroke-linecap:round;stroke-opacity:1"
     d="M 248.64278,25.98394 V 82.49525 H 265.7744 V 57.363917 c 0,-7.893396 6.35503,-14.248362 14.24837,-14.248377 h 1.24694 c -1.46379,3.414111 -2.27522,7.173594 -2.27524,11.123557 4e-5,15.60514 12.65002,28.256097 28.25515,28.256153 9.36089,-8.93e-4 18.11333,-4.637449 23.37225,-12.381472 L 317.65037,58.17457 c -1.63572,4.325214 -5.77656,7.187345 -10.40075,7.189082 -6.14345,-1.73e-4 -11.12337,-4.981122 -11.12355,-11.124555 -2.9e-4,-6.143781 4.97977,-11.124385 11.12355,-11.124559 5.05268,-2.52e-4 9.47131,3.404227 10.75816,8.290254 l 13.71625,-11.28229 c -5.04544,-8.748005 -14.37565,-14.137981 -24.47441,-14.138562 -7.90909,1.9e-5 -15.05766,3.251082 -20.18653,8.487929 V 25.98394 h -8.82138 c -7.89337,0 -12.46731,3.562095 -12.46731,3.562095 V 25.98394 Z m 58.60783,2.228309 c 8.63299,0.0015 16.70331,4.28412 21.54431,11.432043 l -1.5295,1.257916 c -4.45948,-6.695393 -11.97019,-10.719155 -20.01481,-10.722222 -13.28817,-2.65e-4 -24.06041,10.771983 -24.06011,24.060109 2.6e-4,13.287738 10.77233,24.05938 24.06011,24.059112 7.39066,-0.02198 14.36118,-3.439492 18.90468,-9.268632 l 1.48753,1.369727 c -4.93467,6.229395 -12.44507,9.863091 -20.39221,9.865647 -14.37429,7e-5 -26.02696,-11.652602 -26.02682,-26.026852 -1.4e-4,-14.374247 11.65253,-26.026926 26.02682,-26.026848 z m -56.37952,0.0021 h 1.96975 v 52.050635 h -1.96975 z m 5.35312,0 h 1.96874 v 52.050635 h -1.96874 z m 5.35114,0 h 1.96972 v 52.050635 h -1.96972 z m 16.66636,0 h 6.59108 v 1.965742 h -6.59108 c -7.89337,0 -12.46731,3.562095 -12.46731,3.562095 v -1.965744 c 0,0 4.57394,-3.562093 12.46731,-3.562093 z m 0,5.351128 h 6.59108 v 1.965744 h -6.59108 c -7.89337,0 -12.46731,5.35512 -12.46731,5.35512 v -2.370153 c 0,0 4.57394,-4.950791 12.46731,-4.950791 z m 29.0089,0 c 7.03406,0.0024 13.58421,3.581284 17.38618,9.499253 l -1.53045,1.258913 c -3.41734,-5.46665 -9.40884,-8.788385 -15.85573,-8.790428 -10.33105,-1.2e-5 -18.70604,8.374963 -18.70598,18.705988 -4e-5,10.33103 8.37493,18.705998 18.70598,18.705989 5.90226,-0.0015 11.45755,-2.788963 14.98716,-7.519536 l 1.4546,1.338779 c -3.90885,5.132919 -9.98991,8.146448 -16.44176,8.148494 -11.41782,3e-5 -20.67379,-9.255942 -20.67371,-20.673726 -8e-5,-11.417786 9.25589,-20.673759 20.67371,-20.673726 z m -29.0089,5.355126 h 5.28725 c -0.41235,0.63939 -0.79872,1.295166 -1.15808,1.965738 h -4.12917 c -7.89337,0 -12.46731,8.396077 -12.46731,8.396077 v -2.948095 c 0,0 4.57394,-7.413703 12.46731,-7.413703 z m 29.00791,0 c 5.43712,0.0015 10.46605,2.884903 13.21409,7.576434 l -1.54242,1.267898 c -2.35256,-4.242216 -6.82081,-6.874551 -11.67167,-6.876597 -7.37401,0 -13.35185,5.977833 -13.35185,13.351862 0,7.374032 5.97784,13.351862 13.35185,13.351862 4.4084,-0.0021 8.53175,-2.179488 11.01872,-5.819348 l 1.43764,1.322805 c -2.86316,4.041393 -7.50357,6.449178 -12.45636,6.463285 -8.46012,-2.54e-4 -15.31833,-6.858476 -15.3186,-15.318604 -2.9e-4,-8.460514 6.85809,-15.319341 15.3186,-15.319597 z"
     inkscape:label="path7056" />
  <path
     id="path3320"
     style="display:inline;fill:#00ffff;fill-opacity:1;stroke:none;stroke-width:0.819765;stroke-linecap:round;stroke-opacity:1"
     d="M 164.52026,0.26458333 V 25.98394 h -38.17571 c -9.54853,0 -16.84207,6.604852 -16.84207,18.410479 0,11.805622 7.29354,18.410477 16.84207,18.410477 h 17.21646 c 0.66334,0 1.17006,0.459713 1.17006,1.279873 0,0.820295 -0.50672,1.278883 -1.17006,1.278883 H 95.627481 V 82.49525 h 49.103589 c 9.5486,0 16.84208,-6.604855 16.84208,-18.410481 0,-11.805502 -7.29348,-18.411475 -16.84208,-18.411475 h -17.24741 c -0.64819,-0.01411 -1.13911,-0.471404 -1.13911,-1.278875 0,-0.820273 0.5066,-1.278879 1.17006,-1.278879 h 37.00565 v 39.37971 h 17.13159 V 43.11554 h 9.07497 c -1.52037,3.512123 -2.31142,7.296505 -2.32515,11.123557 -2.8e-4,15.605587 12.6506,28.256472 28.25616,28.256153 3.82545,-0.0066 7.60977,-0.789702 11.12355,-2.302181 v 2.302181 h 17.13159 V 54.239097 25.98394 h -17.13159 v 2.283215 C 224.26625,26.761182 220.48197,25.98443 216.65783,25.98394 H 181.65185 V 0.26458333 Z m 2.22831,2.23030167 h 1.96972 V 25.98394 h -1.96972 z m 5.35312,0 h 1.96874 V 25.98394 h -1.96874 z m 5.35112,0 h 1.96974 V 25.98394 h -1.96974 z m 28.25018,25.717338 c -1.32373,0.557691 -2.60298,1.215514 -3.82665,1.967736 l -75.17539,8.94e-4 c -7.37211,3.8e-5 -13.00343,5.098777 -13.00343,14.213434 0,9.114678 5.63132,14.214688 13.00343,14.214431 h 16.92795 c 2.83974,0 5.00868,1.963961 5.00869,5.474925 -10e-6,3.51097 -2.16895,5.474923 -5.00869,5.474923 H 97.856784 v -1.966714 h 45.604406 c 1.8194,0 3.20967,-1.258719 3.20967,-3.508182 0,-2.249467 -1.39027,-3.508186 -3.20967,-3.508186 h -16.92795 c -8.39255,1.75e-4 -14.80246,-5.803916 -14.80247,-16.180175 10e-6,-10.37626 6.40992,-16.181133 14.80247,-16.181173 z m 10.95484,0 c 3.84869,0.0077 7.64777,0.869111 11.12355,2.521814 v 2.181388 c -3.43363,-1.793748 -7.24963,-2.731913 -11.12355,-2.734468 -13.28761,-2.06e-4 -24.05936,10.771559 -24.05912,24.059114 -2.4e-4,13.287551 10.77151,24.059317 24.05912,24.059112 3.87392,-0.0024 7.68992,-0.94072 11.12355,-2.734466 v 2.179384 c -3.47578,1.652704 -7.27486,2.514003 -11.12355,2.521824 -14.37462,2.97e-4 -26.02777,-11.652298 -26.02785,-26.026851 8e-5,-14.374558 11.65323,-26.027276 26.02785,-26.026851 z m 15.32159,0.0021 V 80.26502 h -1.96974 l 2e-5,-52.050681 z m 5.35211,0 V 80.26502 h -1.96871 V 28.214277 Z m 5.35214,0 V 80.26493 h -1.96973 V 28.214277 Z m -45.28391,5.351127 c -0.66333,0.624958 -1.29602,1.281635 -1.89587,1.967738 l -68.34669,0.0021 c -4.59544,0 -8.10555,3.178623 -8.10556,8.86031 10e-6,5.681649 3.51012,8.85947 8.10556,8.859312 h 16.92795 c 5.6167,1.8e-5 9.90656,3.884702 9.90656,10.829047 10e-6,6.944344 -4.28986,10.829049 -9.90656,10.829049 H 97.856784 v -1.967913 h 46.060636 c 4.5963,0 8.10654,-3.178563 8.10655,-8.861314 -1e-5,-5.682747 -3.51025,-8.86142 -8.10655,-8.86131 h -16.92794 c -5.61583,9.8e-5 -9.90557,-3.884797 -9.90558,-10.828042 1e-5,-6.943268 4.28975,-10.827052 9.90558,-10.827052 z m 19.25807,0.0021 c 3.94243,0.0024 7.802,1.131925 11.12355,3.255601 v 2.394029 c -3.21785,-2.386909 -7.11707,-3.677291 -11.12355,-3.681895 -10.33087,-5.95e-4 -18.70594,8.374167 -18.70598,18.704993 4e-5,10.330819 8.37511,18.705454 18.70598,18.704986 4.00648,-0.0046 7.9057,-1.294989 11.12355,-3.681896 V 71.6574 c -3.32155,2.123674 -7.18112,3.253048 -11.12355,3.255603 -11.41731,7.1e-5 -20.67287,-9.255473 -20.67274,-20.672725 -1.3e-4,-11.417252 9.25543,-20.6728 20.67274,-20.672728 z m -23.72169,5.353127 c -0.41271,0.640023 -0.79938,1.29647 -1.15907,1.96774 h -64.16463 c -1.81879,0 -3.20767,1.258469 -3.20767,3.507178 0,2.248712 1.38888,3.50619 3.20767,3.50619 h 16.92795 c 8.39344,0 14.80444,5.804732 14.80445,16.182169 -1e-5,10.377421 -6.41101,16.182179 -14.80445,16.182176 l -46.683606,-8.9e-4 v -1.966735 l 46.516886,8.93e-4 c 7.37302,1.58e-4 13.00444,-5.099617 13.00443,-14.215435 0,-9.115819 -5.63141,-14.215337 -13.00443,-14.215432 h -16.92795 c -2.83921,0 -5.00769,-1.962597 -5.00769,-5.472927 0,-3.510327 2.16848,-5.473923 5.00769,-5.473923 z m 23.72169,0 c 4.20899,0.0021 8.23175,1.735771 11.12355,4.794049 v 3.145784 c -2.47298,-3.728738 -6.64928,-5.971073 -11.12355,-5.972093 -7.37407,-3.3e-5 -13.35192,5.977823 -13.35188,13.351861 -4e-5,7.374035 5.97781,13.351891 13.35188,13.351861 4.47427,-8.93e-4 8.65057,-2.243358 11.12355,-5.972098 v 3.104854 c -2.88492,3.073007 -6.90859,4.821562 -11.12355,4.833983 -8.46052,2.5e-4 -15.31934,-6.858113 -15.31961,-15.3186 -2.7e-4,-8.460881 6.8587,-15.319854 15.31961,-15.319601 z m -49.90926,4.195044 h 1.96972 V 80.26514 h -1.96972 z m 5.35312,0 h 1.96874 V 80.26514 h -1.96874 z m 5.35112,0 h 1.96974 V 80.26514 h -1.96974 z m 39.20502,0 c 6.14325,2.58e-4 11.12326,4.980294 11.12355,11.123559 2.8e-4,6.143654 -4.97992,11.124293 -11.12355,11.124555 -6.14403,2.85e-4 -11.12485,-4.980507 -11.12456,-11.124555 2.7e-4,-6.143656 4.98092,-11.123845 11.12456,-11.123559 z"
     sodipodi:nodetypes="ccssssssccssscssccccccccccccccccccccccccccccccccccccscsssccssscscccccccccccccccccccccccccccccccsccssccssccscccccccccccccccssssscccsscsscccccccccccsccccccccccccccccsssss"
     inkscape:label="path7054" />
  <path
     id="rect36546"
     style="display:inline;fill:#00ffff;stroke:none;stroke-width:0.554405;stroke-linecap:round;stroke-opacity:1;fill-opacity:1"
     d="M 30.817929,11.651702 18.484376,49.609774 0.26458333,59.304695 32.553053,82.763802 36.142101,103.08812 68.43157,79.629003 88.870683,82.49525 76.537131,44.537182 85.579141,25.984941 H 45.66731 Z M 33.688987,17.521375 22.349108,52.418317 20.53646,51.101369 31.983458,15.875128 Z m 4.640206,4.478917 -11.048342,34.001097 -1.812626,-1.316932 11.155456,-34.330396 z m 4.640445,4.479147 -10.757007,33.105049 -1.81256,-1.316884 10.8646,-33.433869 z m 37.915123,4.048965 H 44.191363 l 0.692278,-2.13046 h 37.039465 z m -2.825535,5.797389 -35.751683,-10e-6 0.692276,-2.130449 h 36.097752 z m -2.825536,5.79739 -34.809969,-10e-6 0.692278,-2.13046 H 76.27204 Z M 39.639304,44.537182 H 57.030473 L 62.403562,61.076761 48.334887,71.297814 34.265216,61.075763 Z M 70.347907,77.715691 59.567392,44.537183 h 2.240436 l 10.887831,33.50775 z M 76.7354,78.611456 65.663334,44.537183 h 2.240326 l 11.178112,34.403322 z m 6.386441,0.895617 -11.362664,-34.96989 h 2.240421 L 85.469255,79.836268 Z M 18.120384,52.328665 46.280318,72.790444 44.468109,74.107086 16.027318,53.442413 Z M 39.537031,77.68958 10.334194,56.471799 12.427123,55.358124 41.34956,76.372754 Z M 34.604902,81.272836 4.6412102,59.50111 6.73284,58.388127 36.417495,79.955964 Z M 63.880252,65.621129 35.438246,86.282704 35.026043,83.948454 63.187949,63.490473 Z M 65.763693,71.41767 36.559861,92.634257 36.147597,90.299663 65.071508,69.287379 Z M 67.647519,77.215399 37.681468,98.985763 37.26916,96.650921 66.955198,75.084686 Z"
     inkscape:label="path7052"
     sodipodi:nodetypes="cccccccccccccccccccccccccccccccccccccccccccccccccccccccccccccccccccccccccccccccccccccccccccc" />
</svg>
